<svg width="24" height="25" viewBox="0 0 24 25" fill="none" xmlns="http://www.w3.org/2000/svg">
<path d="M1.34424 10.1553C1.34424 9.38767 1.34636 8.91251 1.39275 8.5675C1.43407 8.26016 1.49432 8.20098 1.50955 8.18602C1.50999 8.18559 1.51039 8.18519 1.51075 8.18483C1.51112 8.18446 1.51151 8.18406 1.51195 8.18362C1.52691 8.16839 1.58608 8.10814 1.89343 8.06682C2.23844 8.02043 2.7136 8.01831 3.48128 8.01831H20.6116C21.3793 8.01831 21.8545 8.02043 22.1995 8.06682C22.5068 8.10814 22.566 8.16839 22.581 8.18362C22.5814 8.18406 22.5818 8.18446 22.5822 8.18483C22.5825 8.18519 22.5829 8.18558 22.5834 8.18602C22.5986 8.20098 22.6589 8.26015 22.7002 8.5675C22.7466 8.91251 22.7487 9.38767 22.7487 10.1554V12.7023C22.7487 15.071 22.7475 16.7722 22.6129 18.0947C22.4801 19.4004 22.2256 20.2254 21.7903 20.877C21.3753 21.498 20.8422 22.0311 20.2212 22.446C19.5696 22.8814 18.7446 23.1359 17.4389 23.2687C16.1164 23.4033 14.4152 23.4045 12.0465 23.4045C9.67774 23.4045 7.97648 23.4033 6.65405 23.2687C5.34834 23.1359 4.52331 22.8814 3.8717 22.446C3.25074 22.0311 2.71758 21.498 2.30267 20.877C1.86728 20.2254 1.6128 19.4004 1.47997 18.0947C1.34545 16.7722 1.34424 15.071 1.34424 12.7023V10.1553Z" stroke="#1F1F1F" stroke-width="2"/>
<path d="M17.8706 11.6992V6.34959C17.8706 3.82777 17.8706 2.56686 17.0871 1.78343C16.3037 1 15.0428 1 12.521 1H11.1836C8.66175 1 7.40084 1 6.61741 1.78343C5.83398 2.56686 5.83398 3.82777 5.83398 6.34958V11.6992" stroke="#1F1F1F" stroke-width="2" stroke-linecap="round"/>
</svg>
