<svg width="28" height="23" viewBox="0 0 28 23" fill="none" xmlns="http://www.w3.org/2000/svg">
<path d="M24.8535 2.96425C24.2311 2.34152 23.4921 1.84754 22.6787 1.5105C21.8653 1.17347 20.9934 1 20.113 1C19.2325 1 18.3607 1.17347 17.5473 1.5105C16.7339 1.84754 15.9949 2.34152 15.3724 2.96425L14.0807 4.25601L12.7889 2.96425C11.5316 1.70698 9.82642 1.00065 8.04838 1.00065C6.27033 1.00065 4.5651 1.70698 3.30783 2.96425C2.05056 4.22152 1.34424 5.92674 1.34424 7.70479C1.34424 9.48283 2.05056 11.1881 3.30783 12.4453L4.5996 13.7371L7.01883 16.1563C10.3478 19.4853 12.0123 21.1498 14.0807 21.1498C16.1491 21.1498 17.8135 19.4853 21.1425 16.1563L23.5618 13.7371L24.8535 12.4453C25.4763 11.8229 25.9702 11.0839 26.3073 10.2705C26.6443 9.45708 26.8178 8.58525 26.8178 7.70479C26.8178 6.82433 26.6443 5.9525 26.3073 5.1391C25.9702 4.3257 25.4763 3.58668 24.8535 2.96425Z" stroke="#1F1F1F" stroke-width="2" stroke-linecap="round" stroke-linejoin="round"/>
</svg>
