<svg width="53" height="53" viewBox="0 0 53 53" fill="none" xmlns="http://www.w3.org/2000/svg">
<path d="M44.1667 24.2917C44.1667 19.6062 42.3054 15.1126 38.9922 11.7994C35.6791 8.4863 31.1855 6.625 26.5 6.625C21.8145 6.625 17.3209 8.4863 14.0078 11.7994C10.6946 15.1126 8.83334 19.6062 8.83334 24.2917" stroke="black" stroke-width="1.5" stroke-linecap="round" stroke-linejoin="round"/>
<path d="M44.1667 39.7499V40.8541C44.1667 42.0255 43.7013 43.1489 42.8731 43.9772C42.0448 44.8055 40.9214 45.2708 39.75 45.2708H32.0208M4.41667 34.0922V29.9494C4.41682 28.9645 4.74616 28.0079 5.35235 27.2316C5.95854 26.4554 6.80679 25.904 7.76229 25.6652L11.6048 24.7024C11.8 24.6537 12.0038 24.6502 12.2006 24.6921C12.3974 24.7339 12.5821 24.8201 12.7407 24.9439C12.8993 25.0678 13.0275 25.2262 13.1158 25.407C13.204 25.5878 13.2499 25.7864 13.25 25.9876V38.0517C13.2503 38.2534 13.2047 38.4524 13.1164 38.6338C13.0282 38.8151 12.8998 38.9739 12.7409 39.098C12.582 39.2222 12.3969 39.3085 12.1996 39.3502C12.0024 39.392 11.7982 39.3883 11.6026 39.3392L7.76008 38.3786C6.805 38.1393 5.95724 37.5878 5.35148 36.8116C4.74572 36.0354 4.41669 35.079 4.41667 34.0944V34.0922ZM48.5833 34.0922V29.9494C48.5832 28.9645 48.2538 28.0079 47.6477 27.2316C47.0415 26.4554 46.1932 25.904 45.2377 25.6652L41.3952 24.7024C41.2 24.6537 40.9962 24.6502 40.7994 24.6921C40.6026 24.7339 40.4179 24.8201 40.2593 24.9439C40.1007 25.0678 39.9725 25.2262 39.8842 25.407C39.796 25.5878 39.7501 25.7864 39.75 25.9876V38.0517C39.7497 38.2531 39.7954 38.452 39.8835 38.6331C39.9716 38.8142 40.0998 38.9728 40.2584 39.0969C40.417 39.2211 40.6019 39.3074 40.7988 39.3494C40.9958 39.3913 41.1998 39.3879 41.3952 39.3392L45.2377 38.3786C46.1932 38.1397 47.0415 37.5884 47.6477 36.8121C48.2538 36.0359 48.5832 35.0793 48.5833 34.0944V34.0922Z" stroke="black" stroke-width="1.5"/>
<path d="M29.8125 48.5834H23.1875C22.309 48.5834 21.4664 48.2344 20.8452 47.6132C20.224 46.9919 19.875 46.1494 19.875 45.2709C19.875 44.3923 20.224 43.5498 20.8452 42.9286C21.4664 42.3074 22.309 41.9584 23.1875 41.9584H29.8125C30.691 41.9584 31.5336 42.3074 32.1548 42.9286C32.776 43.5498 33.125 44.3923 33.125 45.2709C33.125 46.1494 32.776 46.9919 32.1548 47.6132C31.5336 48.2344 30.691 48.5834 29.8125 48.5834Z" stroke="black" stroke-width="1.5"/>
</svg>
