<svg width="51" height="51" viewBox="0 0 51 51" fill="none" xmlns="http://www.w3.org/2000/svg">
<path d="M41.4375 14.3438H9.5625C6.92189 14.3438 4.78125 16.4844 4.78125 19.125V38.25C4.78125 40.8906 6.92189 43.0312 9.5625 43.0312H41.4375C44.0781 43.0312 46.2188 40.8906 46.2188 38.25V19.125C46.2188 16.4844 44.0781 14.3438 41.4375 14.3438Z" stroke="black" stroke-width="2" stroke-linejoin="round"/>
<path d="M40.9753 14.3437V11.3555C40.9751 10.6225 40.8131 9.8987 40.5009 9.2356C40.1887 8.57249 39.734 7.98646 39.1692 7.51932C38.6045 7.05218 37.9436 6.71544 37.2337 6.53313C36.5238 6.35082 35.7825 6.32743 35.0625 6.46463L8.82938 10.9421C7.69016 11.1592 6.66243 11.767 5.92342 12.6608C5.18441 13.5545 4.78046 14.6782 4.78125 15.8379V20.7187" stroke="black" stroke-width="2" stroke-linejoin="round"/>
<path d="M36.6563 31.875C36.0258 31.875 35.4096 31.6881 34.8854 31.3378C34.3612 30.9876 33.9526 30.4897 33.7114 29.9073C33.4701 29.3249 33.407 28.684 33.53 28.0657C33.653 27.4473 33.9566 26.8794 34.4023 26.4336C34.8481 25.9878 35.4161 25.6842 36.0344 25.5612C36.6527 25.4383 37.2936 25.5014 37.8761 25.7426C38.4585 25.9839 38.9563 26.3924 39.3066 26.9166C39.6568 27.4408 39.8438 28.0571 39.8438 28.6875C39.8438 29.5329 39.5079 30.3436 38.9102 30.9414C38.3124 31.5392 37.5016 31.875 36.6563 31.875Z" fill="black"/>
</svg>
