<svg width="44" height="44" viewBox="0 0 44 44" fill="none" xmlns="http://www.w3.org/2000/svg">
<path d="M34.8333 20.1666H9.16667C7.14162 20.1666 5.5 21.8082 5.5 23.8333V36.6666C5.5 38.6917 7.14162 40.3333 9.16667 40.3333H34.8333C36.8584 40.3333 38.5 38.6917 38.5 36.6666V23.8333C38.5 21.8082 36.8584 20.1666 34.8333 20.1666Z" stroke="black" stroke-width="2" stroke-linecap="round" stroke-linejoin="round"/>
<path d="M12.8333 20.1666V12.8333C12.8333 10.4021 13.7991 8.07056 15.5182 6.35148C17.2373 4.6324 19.5689 3.66663 22 3.66663C24.4312 3.66663 26.7627 4.6324 28.4818 6.35148C30.2009 8.07056 31.1667 10.4021 31.1667 12.8333V20.1666" stroke="black" stroke-width="2" stroke-linecap="round" stroke-linejoin="round"/>
</svg>
