<svg width="22" height="27" viewBox="0 0 22 27" fill="none" xmlns="http://www.w3.org/2000/svg">
<path d="M18.2797 8.31189C18.2797 6.37265 17.5094 4.51285 16.1381 3.1416C14.7669 1.77036 12.9071 1 10.9678 1C9.0286 1 7.16879 1.77036 5.79755 3.1416C4.4263 4.51285 3.65594 6.37265 3.65594 8.31189C3.65594 11.422 3.16998 13.7222 2.5524 15.3896C1.74291 17.5752 1.33816 18.668 1.55103 18.9739C1.7639 19.2797 2.74664 19.2797 4.7121 19.2797H17.2236C19.189 19.2797 20.1718 19.2797 20.3846 18.9739C20.5975 18.668 20.1928 17.5752 19.3833 15.3896C18.7657 13.7222 18.2797 11.422 18.2797 8.31189Z" stroke="#1F1F1F" stroke-width="2" stroke-linecap="round" stroke-linejoin="round"/>
<path d="M13.0761 24.1543C12.8619 24.5236 12.5544 24.8302 12.1844 25.0433C11.8144 25.2565 11.3949 25.3686 10.9679 25.3686C10.5409 25.3686 10.1214 25.2565 9.75139 25.0433C9.38139 24.8302 9.07387 24.5236 8.85962 24.1543" stroke="#1F1F1F" stroke-width="2" stroke-linecap="round" stroke-linejoin="round"/>
</svg>
