<svg width="32" height="19" viewBox="0 0 32 19" fill="none" xmlns="http://www.w3.org/2000/svg">
<path d="M10.5454 18.0001C11.2687 18.0001 11.9624 17.7245 12.4739 17.234C12.9853 16.7435 13.2727 16.0783 13.2727 15.3847C13.2727 14.691 12.9853 14.0258 12.4739 13.5353C11.9624 13.0448 11.2687 12.7693 10.5454 12.7693C9.82207 12.7693 9.12838 13.0448 8.61691 13.5353C8.10545 14.0258 7.81812 14.691 7.81812 15.3847C7.81812 16.0783 8.10545 16.7435 8.61691 17.234C9.12838 17.7245 9.82207 18.0001 10.5454 18.0001V18.0001ZM24.1818 18.0001C24.9051 18.0001 25.5988 17.7245 26.1102 17.234C26.6217 16.7435 26.909 16.0783 26.909 15.3847C26.909 14.691 26.6217 14.0258 26.1102 13.5353C25.5988 13.0448 24.9051 12.7693 24.1818 12.7693C23.4584 12.7693 22.7647 13.0448 22.2533 13.5353C21.7418 14.0258 21.4545 14.691 21.4545 15.3847C21.4545 16.0783 21.7418 16.7435 22.2533 17.234C22.7647 17.7245 23.4584 18.0001 24.1818 18.0001V18.0001Z" stroke="#1F1F1F" stroke-width="1.14" stroke-miterlimit="1.5" stroke-linecap="round" stroke-linejoin="round"/>
<path d="M13.3409 15.3846H20.0909V1.78462C20.0909 1.57652 20.0047 1.37695 19.8513 1.22981C19.6978 1.08266 19.4897 1 19.2727 1H1M7.34091 15.3846H4.54545C4.43801 15.3846 4.33162 15.3643 4.23235 15.3249C4.13308 15.2855 4.04289 15.2277 3.96691 15.1548C3.89094 15.0819 3.83067 14.9955 3.78955 14.9003C3.74844 14.8051 3.72727 14.703 3.72727 14.6V8.19231" stroke="#1F1F1F" stroke-width="1.14" stroke-linecap="round"/>
<path d="M2.36377 4.9231H7.81832" stroke="#1F1F1F" stroke-width="1.14" stroke-linecap="round" stroke-linejoin="round"/>
<path d="M20.0908 4.9231H27.7408C27.899 4.92313 28.0537 4.96712 28.1863 5.04975C28.319 5.13237 28.4238 5.25008 28.4881 5.38863L30.929 10.656C30.9755 10.756 30.9997 10.8643 30.9999 10.9738V14.6C30.9999 14.7031 30.9787 14.8051 30.9376 14.9003C30.8965 14.9955 30.8362 15.082 30.7603 15.1548C30.6843 15.2277 30.5941 15.2855 30.4948 15.3249C30.3956 15.3643 30.2892 15.3846 30.1817 15.3846H27.5908M20.0908 15.3846H21.4545" stroke="#1F1F1F" stroke-width="1.14" stroke-linecap="round"/>
</svg>
